# xmcd
#
# Track frame offsets:
#	150
#	9115
#	24030
#	45150
#	70513
#
# Disc length: 2870 seconds
#
# Revision: 1
# Processed by: cddbd v1.5PL3 Copyright (c) Steve Scherf et al.
# Submitted via: EasyCDDAExtractor 6.0.0.1
#
DISCID=200b3405
DTITLE=Various Artist - Bonus [CD 2)
DYEAR=2003
DGENRE=Chanson
TTITLE0=Emilie Simon - Flowers
TTITLE1=I wanna be your dog
TTITLE2=Femme fatale
TTITLE3=Blue light
TTITLE4=Data bonus
EXTD=
EXTT0=
EXTT1=
EXTT2=
EXTT3=
EXTT4=
PLAYORDER=
